<svg xmlns="http://www.w3.org/2000/svg" width="214" height="38" viewBox="0 0 214 38"><g fill="none"><path fill="#231F20" d="M89.9070883,24.9299891 L80.7572519,14.2634678 L79.480916,14.2634678 L79.480916,27.7147219 L80.6412214,27.7147219 C80.6412214,27.7147219 80.6412214,16.6835333 80.6412214,16.6835333 L90.2220284,27.7147219 L91.04253,27.7147219 C91.04253,27.7147219 91.0673937,14.2551799 91.0673937,14.2551799 L89.8905125,14.2551799 L89.8905125,24.9299891 L89.9070883,24.9299891 Z M74.2512541,20.9683751 C74.2512541,22.4601963 74.1932388,23.5873501 74.0523446,24.2752454 C73.9280262,24.8388222 73.6296619,25.3278081 73.2235551,25.6841876 C72.4942203,26.2892039 71.408506,26.6290076 70.2150491,26.6290076 C69.1044711,26.6290076 67.9607415,26.3472192 67.3971647,25.9079607 C66.6926936,25.4023991 66.4523446,24.5984733 66.4274809,22.9657579 L66.4026172,20.9683751 L66.4026172,14.2717557 L64.7533261,14.2717557 L64.7533261,22.559651 C64.7533261,24.4575791 64.8693566,25.2200654 65.3003272,25.9908397 C65.5821156,26.5129771 65.9633588,26.919084 66.4274809,27.2008724 C67.2728462,27.706434 68.4,27.9633588 69.7509269,27.9633588 C72.4279171,27.9633588 74.4501636,26.9770992 75.1546347,25.3858233 C75.5938931,24.3581243 75.7182116,23.3055616 75.7182116,20.9683751 L75.7182116,14.2717557 L74.2512541,14.2717557 L74.2512541,20.9683751 L74.2512541,20.9683751 Z M103.822465,14.7607415 C102.753326,14.2800436 101.866521,14.1557252 99.7365322,14.1557252 C98.6673937,14.1557252 96.8937841,14.1971647 95.6423119,14.2386041 L94.9792803,14.2800436 L94.9792803,27.7312977 L98.9740458,27.7312977 C102.438386,27.7312977 104.31145,26.9688113 105.745256,24.9880044 C106.615485,23.7779716 107.054744,22.32759 107.054744,20.7363141 C107.054744,17.9930207 105.786696,15.6392585 103.830752,14.7690294 L103.822465,14.7607415 Z M102.529553,26.0322792 C101.626172,26.4549618 100.474155,26.6538713 99.0652126,26.6538713 L96.6285714,26.6538713 L96.6285714,15.2994547 L97.0512541,15.2745911 L98.0375136,15.2331516 C98.3607415,15.2165758 98.8,15.1917121 99.3718648,15.1917121 C100.880262,15.1917121 101.485278,15.2745911 102.214613,15.5729553 C102.877644,15.8547437 103.482661,16.3022901 103.930207,16.8824427 C104.717557,17.9101418 105.156816,19.3025082 105.156816,20.7694656 C105.156816,23.1895311 104.112541,25.2863686 102.537841,26.0157034 L102.529553,26.0322792 Z M114.323228,20.106434 C112.607634,19.3770992 112.4253,19.3025082 111.928026,18.921265 C111.447328,18.5400218 111.223555,18.0758997 111.223555,17.4294438 C111.223555,16.0370774 112.309269,15.1751363 114.049727,15.1751363 C114.853653,15.1751363 115.881352,15.440349 116.569248,15.7884406 L117.083097,14.4209378 C117.083097,14.4209378 116.99193,14.3794984 116.933915,14.3629226 C116.146565,14.1640131 115.25976,14.0396947 114.455834,14.0396947 C111.513631,14.0396947 109.615703,15.51494 109.615703,17.7692475 C109.615703,18.6974918 109.980371,19.5014177 110.618539,20.0649945 C111.264995,20.6119956 111.646238,20.8109051 113.519302,21.614831 C114.853653,22.1618321 115.41723,22.48506 115.839913,22.9243184 C116.179716,23.2889858 116.40349,23.8442748 116.40349,24.3912759 C116.40349,25.7836423 115.135442,26.7533261 113.278953,26.7533261 C112.234678,26.7533261 110.900327,26.4466739 109.996947,26.0157034 L109.466521,27.4329335 C109.557688,27.4660851 109.665431,27.4992366 109.814613,27.5323882 C110.742857,27.7727372 112.126936,27.9550709 113.022028,27.9550709 C116.04711,27.9550709 118.085932,26.363795 118.085932,24.0266085 C118.085932,23.1563795 117.737841,22.3358779 117.157688,21.7640131 C116.552672,21.1589967 115.88964,20.7777535 114.331516,20.0898582 L114.323228,20.106434 Z M55.7526718,14.2800436 L54.1033806,14.2800436 L54.1033806,27.7312977 L62.5321701,27.7312977 L62.5321701,26.5046892 L55.7609597,26.5046892 L55.7609597,14.2883315 L55.7526718,14.2800436 Z M129.100545,25.1869138 C130.227699,23.7613959 130.807852,22.7502726 131.296838,21.3993457 L129.970774,21.3993457 C129.705562,22.4684842 129.266303,23.355289 128.545256,24.3001091 C128.105998,23.6370774 127.8988,23.3967285 127.459542,22.9491821 C126.95398,22.4684842 126.713631,22.2861505 126.0506,21.9049073 C127.401527,21.3993457 127.981679,20.7363141 127.981679,19.6920393 C127.981679,18.4239913 127.011996,17.6200654 125.503599,17.6200654 C123.912323,17.6200654 122.74373,18.6229008 122.74373,19.9738277 C122.74373,20.8026172 123.066957,21.3827699 123.870883,22.0706652 C122.138713,22.8994547 121.434242,23.7033806 121.434242,24.9465649 C121.434242,26.5958561 122.843184,27.8887677 124.63337,27.8887677 C125.901418,27.8887677 127.086587,27.3251908 128.139149,26.2394766 C128.943075,27.4495093 129.572955,27.8141767 130.874155,27.8141767 C131.255398,27.8141767 131.495747,27.7976009 131.860414,27.6898582 L131.860414,27.0682661 C131.71952,27.0848419 131.661505,27.0848419 131.578626,27.0848419 C130.675245,27.0848419 130.128244,26.678735 129.100545,25.1952017 L129.100545,25.1869138 Z M125.370992,18.4654308 C126.116903,18.4654308 126.597601,18.9875682 126.597601,19.7749182 C126.597601,20.5622683 126.174918,21.1009815 125.312977,21.4490731 C124.451036,20.9269357 124.061505,20.421374 124.061505,19.7749182 C124.061505,19.0124318 124.608506,18.4654308 125.370992,18.4654308 L125.370992,18.4654308 Z M125.072628,26.6041439 C123.84602,26.6041439 122.959215,25.7753544 122.959215,24.6316249 C122.959215,23.7862595 123.439913,23.197819 124.63337,22.6176663 C126.083751,23.4215921 127.011996,24.2669575 127.617012,25.3526718 C126.887677,26.1565976 125.967721,26.6041439 125.080916,26.6041439 L125.072628,26.6041439 Z M186.444493,14.2883315 L184.795202,14.2883315 L184.795202,27.7395856 L193.223991,27.7395856 L193.223991,26.5129771 L186.452781,26.5129771 L186.452781,14.2966194 L186.444493,14.2883315 Z M212.833152,21.7888768 C212.228135,21.1838604 211.565104,20.8026172 210.006979,20.1147219 C208.291385,19.3853871 208.109051,19.3107961 207.60349,18.9295529 C207.122792,18.5483097 206.899019,18.0841876 206.899019,17.4377317 C206.899019,16.0453653 207.984733,15.1834242 209.725191,15.1834242 C210.529117,15.1834242 211.556816,15.4486369 212.244711,15.7967285 L212.758561,14.4292257 C212.758561,14.4292257 212.667394,14.3877863 212.609378,14.3712105 C211.822028,14.172301 210.935224,14.0479826 210.131298,14.0479826 C207.189095,14.0479826 205.291167,15.5232279 205.291167,17.7775354 C205.291167,18.7057797 205.655834,19.5097056 206.30229,20.0732824 C206.948746,20.6202835 207.329989,20.819193 209.211341,21.6231189 C210.545692,22.17012 211.109269,22.48506 211.531952,22.9326063 C211.871756,23.2972737 212.095529,23.8525627 212.095529,24.3995638 C212.095529,25.7919302 210.827481,26.761614 208.970992,26.761614 C207.926718,26.761614 206.592366,26.4549618 205.688986,26.0239913 L205.158561,27.4412214 C205.241439,27.474373 205.35747,27.5075245 205.506652,27.5406761 C206.434896,27.7810251 207.818975,27.9633588 208.714068,27.9633588 C211.739149,27.9633588 213.769684,26.3720829 213.769684,24.0348964 C213.769684,23.1646674 213.421592,22.3441658 212.841439,21.772301 L212.833152,21.7888768 Z M181.670665,26.9605234 L181.654089,27.0185387 L181.670665,26.9522356 C181.107088,26.8030534 180.618103,26.521265 180.203708,26.1068702 C179.333479,25.2366412 177.941112,23.2889858 176.979716,21.5485278 C178.89422,20.7611778 179.822465,19.551145 179.822465,17.8604144 C179.822465,16.1696838 178.836205,14.7938931 177.418975,14.4706652 C176.714504,14.2883315 175.968593,14.2303162 174.741985,14.2303162 L174.319302,14.2303162 L173.02639,14.2717557 L171.733479,14.2966194 L171.045583,14.2966194 L171.045583,27.7478735 L172.694875,27.7478735 L172.694875,22.0209378 C173.076118,22.0375136 173.217012,22.0375136 173.54024,22.0375136 C174.385605,22.0375136 174.634242,22.0209378 175.255834,21.9380589 L175.496183,22.3358779 C177.070883,25.0543075 178.322356,26.6953108 179.267176,27.3169029 C179.797601,27.6649945 180.460632,27.8224646 181.405453,27.8390403 L181.405453,27.8390403 C181.405453,27.8390403 181.438604,27.8390403 181.45518,27.8390403 C181.463468,27.8390403 181.480044,27.8390403 181.488332,27.8390403 L181.488332,27.8390403 C181.877863,27.8390403 182.143075,27.8058888 182.524318,27.6981461 L182.524318,26.9853871 C182.366848,27.0102508 182.300545,27.0102508 182.201091,27.0102508 C182.010469,27.0102508 181.828135,26.993675 181.662377,26.9522356 L181.670665,26.9605234 Z M174.136968,20.9683751 C173.65627,20.9683751 173.391058,20.9517993 172.703162,20.9103599 L172.703162,15.4071974 C173.18386,15.3823337 174.095529,15.3491821 174.576227,15.3491821 C176.026609,15.3491821 176.797383,15.5480916 177.31952,16.0536532 C177.758779,16.4763359 178.007415,17.2056707 178.007415,18.051036 C178.007415,20.0898582 176.838822,20.976663 174.136968,20.976663 L174.136968,20.9683751 Z M198.138713,20.7280262 L194.326281,14.2966194 L192.436641,14.2966194 L197.036423,21.9131952 L197.036423,27.7395856 L198.685714,27.7395856 L198.685714,21.8303162 L203.989967,14.2883315 L202.663904,14.2883315 L198.138713,20.7197383 L198.138713,20.7280262 Z M160.710578,21.1921483 L166.918212,21.1921483 L166.918212,19.9986914 L160.710578,19.9986914 L160.710578,15.4652126 L167.705562,15.4652126 L167.705562,14.2966194 L159.052999,14.2966194 L159.052999,27.7478735 L167.763577,27.7478735 L167.763577,26.521265 L160.70229,26.521265 L160.70229,21.2004362 L160.710578,21.1921483 Z M143.123664,20.8523446 C142.618103,20.5125409 142.236859,20.3882225 141.2506,20.2058888 C142.742421,19.6423119 143.405453,18.7720829 143.405453,17.3631407 C143.405453,16.0950927 142.659542,15.0010905 141.532388,14.5784079 C140.803053,14.3131952 140.156598,14.2386041 138.73108,14.2386041 C138.424427,14.2386041 138.142639,14.2634678 137.098364,14.2800436 C136.675682,14.2800436 136.236423,14.2800436 135.772301,14.3049073 L135.02639,14.3049073 L135.02639,27.7561614 L137.894002,27.7561614 C140.007415,27.7561614 140.612432,27.6981461 141.623555,27.4163577 C142.328026,27.2174482 142.957906,26.8693566 143.438604,26.3886587 C144.143075,25.7007634 144.565758,24.697928 144.565758,23.670229 C144.565758,22.5182116 144.018757,21.4739368 143.131952,20.8689204 L143.123664,20.8523446 Z M136.675682,15.3491821 L136.974046,15.3491821 C137.603926,15.3077426 138.142639,15.2911668 138.581897,15.2911668 C139.999128,15.2911668 140.62072,15.4900763 141.101418,16.0950927 C141.424646,16.4763359 141.590403,16.9818975 141.590403,17.6283533 C141.590403,18.6726281 141.084842,19.5014177 140.214613,19.8080698 C139.775354,19.9738277 139.385823,20.0069793 138.457579,20.0069793 L136.667394,20.0069793 L136.667394,15.3491821 L136.675682,15.3491821 Z M138.523882,26.6621592 L137.736532,26.6621592 C137.255834,26.6621592 136.974046,26.6455834 136.907743,26.6455834 L136.667394,26.6455834 L136.667394,21.0844057 L138.441003,21.0844057 C140.314068,21.0844057 141.350055,21.3496183 141.988222,21.9712105 C142.46892,22.4187568 142.734133,23.0983642 142.734133,23.827699 C142.734133,25.7173391 141.325191,26.6704471 138.515594,26.6704471 L138.523882,26.6621592 Z M150.839695,20.7363141 L147.027263,14.3049073 L145.129335,14.3049073 L149.729117,21.9214831 L149.729117,27.7478735 L151.378408,27.7478735 L151.378408,21.8386041 L156.682661,14.2966194 L155.315158,14.2966194 L150.831407,20.7280262 L150.839695,20.7363141 Z"/><path fill="#FFF" d="M41.4394766,18.5814613 C41.2074155,8.63598691 33.0521265,0.613304253 23.0486369,0.613304253 C13.0451472,0.613304253 4.88985823,8.63598691 4.66608506,18.5814613 L0.563576881,18.5814613 L0.563576881,19.393675 L4.67437296,19.393675 C4.88157034,29.3557252 13.0451472,37.3949836 23.0569248,37.3949836 C33.0687023,37.3949836 41.2322792,29.3557252 41.4394766,19.393675 L45.5751363,19.393675 L45.5751363,18.5814613 L41.4394766,18.5814613 Z M23.0569248,36.2844057 C13.6584515,36.2844057 5.98386041,28.7424209 5.77666303,19.393675 L9.58909487,19.393675 L9.58909487,18.5814613 L5.77666303,18.5814613 C6.00043621,9.24100327 13.6667394,1.72388222 23.0486369,1.72388222 C32.4305344,1.72388222 40.0968375,9.24929117 40.3288986,18.5814613 L36.5413304,18.5814613 L36.5413304,19.393675 L40.3288986,19.393675 C40.1217012,28.7424209 32.455398,36.2844057 23.0486369,36.2844057"/><path fill="#00533E" d="M36.5413304,19.393675 L36.5413304,18.5814613 L40.3288986,18.5814613 C40.1051254,9.24929117 32.4388222,1.72388222 23.0486369,1.72388222 C13.6584515,1.72388222 6.00043621,9.24100327 5.77666303,18.5814613 L9.58909487,18.5814613 L9.58909487,19.393675 L5.77666303,19.393675 C5.98386041,28.7424209 13.6501636,36.2926936 23.0569248,36.2926936 C32.4636859,36.2926936 40.1299891,28.7507088 40.3371865,19.393675 L36.5496183,19.393675 L36.5413304,19.393675 Z"/><path fill="#FFF" d="M17.8604144,24.8968375 C17.1973828,24.9631407 16.385169,24.9631407 15.3906216,24.9631407 C14.246892,24.9631407 13.9153762,24.938277 13.8242094,24.2752454 C13.6916031,23.5044711 13.6916031,21.7557252 13.6916031,18.7555071 C13.6916031,18.2333697 13.6916031,16.6669575 13.7496183,15.3243184 L13.7496183,11.9345692 C13.3849509,11.951145 13.0700109,11.9594329 12.9208288,11.9594329 C12.5644493,11.9594329 10.7991276,11.8682661 10.4013086,11.8682661 C10.2272628,11.8682661 10.1775354,11.8931298 10.1775354,12.1997819 C10.1775354,12.3323882 10.2438386,12.3572519 10.9731734,12.4649945 C11.876554,12.6224646 11.9428571,13.1943293 11.9677208,15.6392585 L11.9677208,17.7112323 C11.9677208,18.6643402 11.9677208,19.6920393 11.951145,20.661723 L11.951145,25.8830971 C12.7633588,25.8499455 13.8905125,25.8250818 15.3906216,25.8250818 C19.3605234,25.8250818 19.8495093,25.9576881 20.2887677,25.9576881 C20.3219193,25.9576881 20.346783,25.9494002 20.3799346,25.9328244 L20.5208288,24.465867 C20.189313,24.5570338 19.8080698,24.6647764 19.5262814,24.7062159 C19.0455834,24.7890949 18.2830971,24.8388222 17.8687023,24.8719738 L17.8604144,24.8968375 Z M23.3221374,21.1009815 C22.7336968,21.1009815 22.3773173,20.8274809 21.7308615,19.8909487 L21.7308615,19.874373 C21.7308615,19.874373 21.7308615,19.8577972 21.7308615,19.8577972 C22.402181,19.0041439 22.7585605,18.3991276 23.0569248,17.6366412 L23.1066521,17.5123228 L22.32759,17.5123228 L22.3110142,17.578626 C22.1452563,18.208506 21.8717557,18.7555071 21.4242094,19.3356598 L21.3993457,19.3688113 L21.374482,19.3356598 C21.0926936,18.9046892 20.9683751,18.763795 20.6865867,18.4820065 C20.3633588,18.1753544 20.2141767,18.0676118 19.7997819,17.8272628 L19.7417666,17.7941112 L19.7997819,17.7692475 C20.6451472,17.4543075 21.0015267,17.0399128 21.0015267,16.3934569 C21.0015267,15.597819 20.4130862,15.1088332 19.4599782,15.1088332 C18.4654308,15.1088332 17.7443839,15.7221374 17.7443839,16.5757906 C17.7443839,17.0896401 17.9350055,17.4460196 18.448855,17.8769902 L18.4820065,17.9101418 L18.4405671,17.9267176 C17.338277,18.448855 16.9155943,18.9544166 16.9155943,19.7251908 C16.9155943,20.7528899 17.7941112,21.5568157 18.9129771,21.5568157 C19.708615,21.5568157 20.4462377,21.2087241 21.1092694,20.5208288 L21.134133,20.4959651 L21.1507088,20.5291167 C21.6562704,21.2916031 22.0458015,21.5070883 22.8580153,21.5070883 C23.0569248,21.5070883 23.197819,21.5070883 23.3801527,21.457361 L23.4547437,21.4407852 L23.4547437,21.1009815 L23.355289,21.1009815 C23.355289,21.1009815 23.3221374,21.1009815 23.3055616,21.1009815 L23.3221374,21.1009815 Z M19.393675,15.5812432 C19.8826609,15.5812432 20.1976009,15.9210469 20.1976009,16.4431843 C20.1976009,16.9653217 19.9158124,17.3134133 19.3605234,17.5288986 L19.3439477,17.5288986 C19.3439477,17.5288986 19.3273719,17.5288986 19.3273719,17.5288986 C18.7720829,17.1890949 18.523446,16.8575791 18.523446,16.4431843 C18.523446,15.9459106 18.8881134,15.5812432 19.3853871,15.5812432 L19.393675,15.5812432 Z M20.8357688,19.9904035 C20.3799346,20.4959651 19.7832061,20.7943293 19.2030534,20.7943293 C18.4074155,20.7943293 17.8355507,20.2556161 17.8355507,19.5179935 C17.8355507,18.9792803 18.1587786,18.5897492 18.9129771,18.2167939 L18.9295529,18.2167939 C18.9295529,18.2167939 18.9461287,18.2167939 18.9461287,18.2167939 C19.874373,18.7306434 20.4628135,19.2693566 20.8440567,19.9655398 L20.8440567,19.9821156 C20.8440567,19.9821156 20.8440567,19.9986914 20.8440567,19.9986914 L20.8357688,19.9904035 Z M34.1627045,18.9378408 C33.0769902,18.3245365 31.9995638,18.2499455 31.3199564,18.208506 C32.4471101,17.8769902 34.6516903,17.255398 34.6516903,14.9679389 C34.6516903,13.3103599 33.4582334,12.5395856 32.8449291,12.274373 C32.2067612,11.9842966 31.4111232,11.876554 29.9110142,11.876554 C29.2728462,11.876554 27.5241003,11.9179935 26.8444929,11.9179935 C26.048855,11.9179935 24.8802617,11.876554 24.4824427,11.876554 C24.3498364,11.876554 24.2835333,11.9014177 24.2835333,12.1832061 C24.2835333,12.4069793 24.3498364,12.4235551 24.6399128,12.4235551 C25.8499455,12.4235551 26.0985823,12.7136314 26.1151581,14.6944384 C26.1400218,16.3685932 26.1565976,16.8990185 26.1565976,17.495747 L26.1565976,18.5068702 C26.1565976,19.0538713 26.1565976,19.791494 26.1565976,20.5539804 L26.1565976,23.1563795 C26.1565976,23.1563795 26.1565976,23.1563795 26.1565976,23.1646674 L26.1565976,23.4961832 C26.1317339,24.1840785 26.0239913,25.6593239 25.891385,25.8996728 C26.7035987,25.8665213 27.6898582,25.8748092 27.6898582,25.8748092 L27.6898582,25.8748092 C28.6015267,25.8830971 29.5463468,25.9079607 29.8944384,25.9079607 C31.8338059,25.9079607 32.8946565,25.6841876 34.0218103,24.9631407 C35.0826609,24.3001091 35.8285714,23.0237732 35.8285714,21.7640131 C35.8285714,21.1672846 35.6296619,19.7749182 34.1709924,18.921265 L34.1627045,18.9378408 Z M27.9882225,12.6970556 C28.0959651,12.4732824 28.6761178,12.4732824 29.0490731,12.4732824 C30.1513631,12.4732824 32.5548528,12.4732824 32.5548528,15.2497274 C32.5548528,17.5703381 30.9884406,18.0924755 29.7286805,18.0924755 L27.8970556,18.0924755 C27.8970556,14.7358779 27.8970556,12.8876772 27.9882225,12.6887677 L27.9882225,12.6970556 Z M29.687241,25.2697928 C28.4772083,25.2697928 28.0793893,25.0294438 27.9633588,24.2089422 C27.8556161,23.5044711 27.8721919,19.7749182 27.8970556,18.7389313 C30.6320611,18.7140676 33.7648855,18.6974918 33.7648855,21.9380589 C33.7648855,25.178626 30.7232279,25.2697928 29.6789531,25.2697928 L29.687241,25.2697928 Z"/><path fill="#231F20" d="M23.0569248,0 C12.904253,0 4.591494,7.99781897 4.07764449,18.0178844 L0,18.0178844 L0,19.948964 L4.07764449,19.948964 C4.57491821,29.9856052 12.8959651,38 23.0569248,38 C33.2178844,38 41.5389313,29.9856052 42.036205,19.948964 L46.1387132,19.948964 L46.1387132,18.0178844 L42.036205,18.0178844 C41.5140676,7.99781897 33.2013086,0 23.0569248,0 M45.5751363,19.393675 L41.4394766,19.393675 C41.2322792,29.3557252 33.0687023,37.3949836 23.0569248,37.3949836 C13.0451472,37.3949836 4.87328244,29.3557252 4.66608506,19.393675 L0.563576881,19.393675 L0.563576881,18.5814613 L4.67437296,18.5814613 C4.89814613,8.63598691 13.0534351,0.613304253 23.0569248,0.613304253 C33.0604144,0.613304253 41.2157034,8.63598691 41.4394766,18.5814613 L45.5751363,18.5814613 L45.5751363,19.393675 Z"/></g></svg>